<svg xmlns="http://www.w3.org/2000/svg" width="15.819" height="19.774" viewBox="0 0 15.819 19.774">
  <g id="Group_1" data-name="Group 1" transform="translate(-73 -219)">
    <path id="person" d="M16.446,11.783a2.373,2.373,0,0,1,2.373,2.373v.791c0,3.119-2.942,6.328-7.91,6.328S3,18.065,3,14.946v-.791a2.373,2.373,0,0,1,2.373-2.373ZM10.91,1.5a4.35,4.35,0,1,1-4.35,4.35A4.35,4.35,0,0,1,10.91,1.5Z" transform="translate(70 217.5)" fill="#004990"/>
    <path id="tick_3_" data-name="tick (3)" d="M9.933,6.42a.736.736,0,0,0-1,.286L7.039,8.837l-.782-.782A.736.736,0,1,0,5.216,9.1l1.472,1.472a.735.735,0,0,0,.52.216l.1-.007c.229-.032.332-.126.541-.371l2.367-2.984a.736.736,0,0,0-.286-1Z" transform="translate(75.027 223.334) rotate(11)" fill="#f7f9fc"/>
  </g>
</svg>
