<?xml version="1.0" encoding="utf-8"?>
<!-- Generator: Adobe Illustrator 26.0.3, SVG Export Plug-In . SVG Version: 6.00 Build 0)  -->
<svg version="1.1" id="Layer_1" xmlns="http://www.w3.org/2000/svg" xmlns:xlink="http://www.w3.org/1999/xlink" x="0px" y="0px"
	 viewBox="0 0 787 344" style="enable-background:new 0 0 787 344;" xml:space="preserve">
<style type="text/css">
	.st0{fill:#FFFFFF;}
	.st1{fill:none;stroke:#00B9FF;stroke-width:2;}
	.st2{enable-background:new    ;}
	.st3{fill:#003459;}
	.st4{fill:#00B9FF;}
	.st5{fill:none;stroke:#003459;stroke-width:5;stroke-linecap:round;stroke-linejoin:round;}
	.st6{fill:none;stroke:#003459;stroke-width:5;}
</style>
<g id="Component_17_1" transform="translate(30 27)">
	<g transform="matrix(1, 0, 0, 1, -30, -27)">
		<g id="Rectangle_1458-2" transform="translate(30 27)">
			<path class="st0" d="M142,0h565c11,0,20,9,20,20v244c0,11-9,20-20,20H142C63.6,284,0,220.4,0,142l0,0C0,63.6,63.6,0,142,0z"/>
			<path class="st1" d="M142,1h565c10.5,0,19,8.5,19,19v244c0,10.5-8.5,19-19,19H142C64.1,283,1,219.9,1,142l0,0
				C1,64.1,64.1,1,142,1z"/>
		</g>
	</g>
	<g class="st2">
		<path class="st3" d="M306.4,98.4v12c0,1.3-0.3,2.4-0.8,3.5c-0.6,1-1.4,1.8-2.6,2.4s-2.6,0.9-4.3,0.9c-2.5,0-4.3-0.6-5.6-1.9
			s-1.9-2.9-1.9-5v-12h3.9v11.4c0,1.5,0.3,2.6,0.9,3.2s1.6,0.9,2.8,0.9c0.9,0,1.6-0.1,2.1-0.4s0.9-0.8,1.2-1.4s0.4-1.4,0.4-2.4V98.4
			H306.4z"/>
		<path class="st3" d="M318.6,102.5c1.6,0,2.9,0.6,3.9,1.9s1.5,3.1,1.5,5.5c0,1.6-0.2,3-0.7,4.1c-0.5,1.1-1.1,1.9-1.9,2.5
			s-1.8,0.8-2.8,0.8c-0.7,0-1.3-0.1-1.8-0.3c-0.5-0.2-0.9-0.4-1.3-0.7c-0.3-0.3-0.6-0.6-0.9-0.9h-0.2c0.1,0.3,0.1,0.7,0.2,1
			s0.1,0.7,0.1,1v5.7h-3.9v-20.4h3.1l0.5,1.8h0.2c0.3-0.4,0.6-0.7,0.9-1.1s0.8-0.6,1.3-0.8C317.3,102.6,317.9,102.5,318.6,102.5z
			 M317.3,105.6c-0.7,0-1.2,0.1-1.6,0.4s-0.7,0.7-0.9,1.3s-0.3,1.3-0.3,2.1v0.4c0,0.9,0.1,1.7,0.3,2.3s0.5,1.1,0.9,1.4
			s1,0.5,1.7,0.5c0.6,0,1.1-0.2,1.5-0.5s0.7-0.8,0.9-1.5c0.2-0.6,0.3-1.4,0.3-2.3c0-1.4-0.2-2.4-0.6-3.1S318.2,105.6,317.3,105.6z"
			/>
		<path class="st3" d="M331,117h-3.9V97.2h3.9V117z"/>
		<path class="st3" d="M348,109.9c0,1.2-0.2,2.2-0.5,3.1s-0.8,1.7-1.4,2.3c-0.6,0.6-1.3,1.1-2.2,1.4s-1.8,0.5-2.9,0.5
			c-1,0-1.9-0.2-2.7-0.5s-1.6-0.8-2.2-1.4c-0.6-0.6-1.1-1.4-1.4-2.3s-0.5-2-0.5-3.1c0-1.6,0.3-2.9,0.8-4s1.4-1.9,2.4-2.5
			s2.3-0.9,3.7-0.9c1.3,0,2.5,0.3,3.5,0.9s1.8,1.4,2.4,2.5S348,108.3,348,109.9z M338.2,109.9c0,0.9,0.1,1.7,0.3,2.3s0.5,1.1,1,1.4
			s1,0.5,1.7,0.5c0.7,0,1.2-0.2,1.7-0.5s0.7-0.8,0.9-1.4s0.3-1.4,0.3-2.3c0-0.9-0.1-1.7-0.3-2.3c-0.2-0.6-0.5-1.1-0.9-1.4
			s-1-0.5-1.7-0.5c-1,0-1.8,0.4-2.2,1.1S338.2,108.5,338.2,109.9z"/>
		<path class="st3" d="M357,102.5c1.9,0,3.4,0.4,4.4,1.2s1.5,2.1,1.5,3.8v9.5h-2.7l-0.7-1.9h-0.1c-0.4,0.5-0.8,0.9-1.2,1.2
			s-0.9,0.6-1.5,0.7s-1.2,0.2-2,0.2c-0.8,0-1.6-0.2-2.3-0.5s-1.2-0.8-1.6-1.5c-0.4-0.7-0.6-1.5-0.6-2.5c0-1.5,0.5-2.6,1.6-3.3
			c1.1-0.7,2.6-1.1,4.8-1.2l2.5-0.1v-0.6c0-0.7-0.2-1.3-0.6-1.6s-0.9-0.5-1.6-0.5c-0.7,0-1.4,0.1-2,0.3s-1.3,0.4-2,0.7l-1.3-2.6
			c0.8-0.4,1.6-0.7,2.5-0.9S356,102.5,357,102.5z M359,110.4l-1.5,0.1c-1.3,0-2.1,0.3-2.6,0.7s-0.7,1-0.7,1.6c0,0.6,0.2,1,0.5,1.3
			c0.3,0.2,0.8,0.4,1.4,0.4c0.8,0,1.5-0.2,2.1-0.7s0.9-1.2,0.9-2.1V110.4z"/>
		<path class="st3" d="M371.4,117.3c-1.6,0-2.9-0.6-3.9-1.9c-1-1.2-1.5-3.1-1.5-5.5c0-2.4,0.5-4.3,1.5-5.5c1-1.2,2.3-1.9,3.9-1.9
			c0.7,0,1.3,0.1,1.8,0.3s1,0.4,1.3,0.7c0.4,0.3,0.7,0.7,1,1.1h0.1c-0.1-0.3-0.1-0.7-0.2-1.2c-0.1-0.5-0.1-1.1-0.1-1.6v-4.5h3.9V117
			h-3l-0.7-1.8h-0.2c-0.2,0.4-0.6,0.7-0.9,1.1c-0.4,0.3-0.8,0.6-1.3,0.8S372.1,117.3,371.4,117.3z M372.7,114.2
			c1.1,0,1.8-0.3,2.2-0.9c0.4-0.6,0.7-1.6,0.7-2.8V110c0-1.4-0.2-2.4-0.6-3.2c-0.4-0.7-1.2-1.1-2.4-1.1c-0.9,0-1.5,0.4-2,1.1
			s-0.7,1.8-0.7,3.2s0.2,2.4,0.7,3.1C371.1,113.8,371.8,114.2,372.7,114.2z"/>
		<path class="st3" d="M401.7,117l-1.3-4.4h-6.8l-1.3,4.4H388l6.6-18.6h4.8L406,117H401.7z M399.5,109.3l-1.3-4.3
			c-0.1-0.3-0.2-0.7-0.3-1.1c-0.1-0.5-0.3-0.9-0.4-1.4c-0.1-0.5-0.3-0.9-0.3-1.2c-0.1,0.3-0.2,0.8-0.3,1.3c-0.1,0.5-0.3,1-0.4,1.5
			s-0.2,0.8-0.3,1l-1.3,4.3H399.5z"/>
		<path class="st3" d="M415.1,98.4h5.8c2.5,0,4.3,0.3,5.6,1s1.9,1.9,1.9,3.7c0,0.7-0.1,1.3-0.3,1.9c-0.2,0.6-0.5,1-1,1.4
			s-0.9,0.6-1.5,0.7v0.1c0.6,0.1,1.2,0.3,1.7,0.7c0.5,0.3,0.9,0.8,1.2,1.3c0.3,0.6,0.5,1.4,0.5,2.3c0,1.1-0.3,2.1-0.8,2.9
			s-1.3,1.4-2.4,1.8c-1,0.4-2.2,0.6-3.6,0.6h-6.9V98.4z M419,105.8h2.3c1.1,0,1.9-0.2,2.4-0.5c0.4-0.4,0.7-0.9,0.7-1.6
			c0-0.7-0.3-1.2-0.8-1.5c-0.5-0.3-1.3-0.5-2.5-0.5H419V105.8z M419,108.9v4.8h2.6c1.2,0,2-0.2,2.5-0.7s0.7-1.1,0.7-1.8
			c0-0.5-0.1-0.9-0.3-1.2s-0.5-0.6-1-0.8c-0.5-0.2-1.1-0.3-2-0.3H419z"/>
		<path class="st3" d="M438.1,102.5c1.9,0,3.4,0.4,4.4,1.2s1.5,2.1,1.5,3.8v9.5h-2.7l-0.7-1.9h-0.1c-0.4,0.5-0.8,0.9-1.2,1.2
			s-0.9,0.6-1.5,0.7s-1.2,0.2-2,0.2c-0.8,0-1.6-0.2-2.3-0.5c-0.7-0.3-1.2-0.8-1.6-1.5c-0.4-0.7-0.6-1.5-0.6-2.5
			c0-1.5,0.5-2.6,1.6-3.3c1.1-0.7,2.6-1.1,4.8-1.2l2.5-0.1v-0.6c0-0.7-0.2-1.3-0.6-1.6s-0.9-0.5-1.6-0.5c-0.7,0-1.4,0.1-2,0.3
			s-1.3,0.4-2,0.7l-1.3-2.6c0.8-0.4,1.6-0.7,2.5-0.9C436.1,102.6,437.1,102.5,438.1,102.5z M440.1,110.4l-1.5,0.1
			c-1.3,0-2.1,0.3-2.6,0.7c-0.5,0.4-0.7,1-0.7,1.6c0,0.6,0.2,1,0.5,1.3c0.3,0.2,0.8,0.4,1.4,0.4c0.8,0,1.5-0.2,2.1-0.7
			c0.6-0.5,0.9-1.2,0.9-2.1V110.4z"/>
		<path class="st3" d="M453.9,114.2c0.4,0,0.8,0,1.2-0.1c0.4-0.1,0.8-0.2,1.2-0.3v2.9c-0.4,0.2-0.9,0.3-1.5,0.5
			c-0.6,0.1-1.3,0.2-2,0.2c-0.8,0-1.6-0.1-2.3-0.4c-0.7-0.3-1.2-0.8-1.6-1.4c-0.4-0.7-0.6-1.6-0.6-2.8v-6.8h-1.9v-1.6l2.1-1.3l1.1-3
			h2.5v3h4v2.9h-4v6.8c0,0.5,0.2,0.9,0.5,1.2C453,114,453.4,114.2,453.9,114.2z"/>
		<path class="st3" d="M465,117.3c-1.4,0-2.6-0.3-3.6-0.8c-1-0.5-1.7-1.3-2.3-2.4s-0.8-2.5-0.8-4.1c0-1.7,0.3-3.2,0.9-4.2
			c0.6-1.1,1.4-1.9,2.5-2.4c1-0.5,2.3-0.8,3.6-0.8c1,0,1.8,0.1,2.5,0.3c0.7,0.2,1.3,0.4,1.9,0.7l-1.1,3c-0.6-0.2-1.2-0.4-1.7-0.6
			c-0.5-0.2-1-0.2-1.6-0.2c-0.7,0-1.2,0.2-1.7,0.5c-0.4,0.3-0.8,0.8-1,1.4s-0.3,1.4-0.3,2.4c0,0.9,0.1,1.7,0.4,2.3s0.6,1.1,1,1.4
			c0.4,0.3,1,0.5,1.6,0.5c0.8,0,1.5-0.1,2.1-0.3c0.6-0.2,1.2-0.5,1.8-0.9v3.3c-0.6,0.4-1.2,0.6-1.9,0.8
			C466.8,117.2,466,117.3,465,117.3z"/>
		<path class="st3" d="M476.5,97.2v4c0,0.7,0,1.4-0.1,2c0,0.6-0.1,1.1-0.1,1.3h0.2c0.3-0.5,0.7-0.9,1.1-1.2c0.4-0.3,0.9-0.5,1.4-0.7
			s1.1-0.2,1.6-0.2c1,0,1.9,0.2,2.7,0.5c0.8,0.4,1.4,0.9,1.8,1.7c0.4,0.8,0.6,1.8,0.6,3v9.3h-3.9v-8.3c0-1-0.2-1.8-0.6-2.3
			s-0.9-0.8-1.7-0.8s-1.4,0.2-1.8,0.5c-0.4,0.4-0.8,0.9-1,1.6c-0.2,0.7-0.3,1.6-0.3,2.6v6.7h-3.9V97.2H476.5z"/>
	</g>
	<g class="st2">
		<path class="st3" d="M301.9,143.7v9.2c0,1-0.2,1.9-0.6,2.7s-1,1.4-1.9,1.9s-1.9,0.7-3.1,0.7c-1.8,0-3.2-0.5-4.1-1.4
			s-1.4-2.2-1.4-3.8v-9.2h2v9.1c0,1.2,0.3,2.1,0.9,2.7s1.5,0.9,2.7,0.9c0.8,0,1.5-0.1,2-0.4s0.9-0.7,1.2-1.3s0.4-1.2,0.4-1.9v-9.1
			H301.9z"/>
		<path class="st3" d="M310.7,147c1.3,0,2.4,0.5,3.1,1.4s1.2,2.3,1.2,4.2c0,1.2-0.2,2.3-0.5,3.1s-0.9,1.5-1.5,1.9s-1.4,0.6-2.3,0.6
			c-0.6,0-1-0.1-1.5-0.2s-0.8-0.3-1.1-0.6s-0.5-0.5-0.7-0.8h-0.1c0,0.3,0.1,0.5,0.1,0.9s0,0.6,0,0.9v4.4h-2v-15.5h1.6l0.3,1.5h0.1
			c0.2-0.3,0.5-0.6,0.7-0.9s0.7-0.5,1.1-0.6S310.1,147,310.7,147z M310.2,148.7c-0.7,0-1.2,0.1-1.7,0.4s-0.7,0.7-0.9,1.2
			s-0.3,1.2-0.3,2v0.3c0,0.9,0.1,1.6,0.3,2.2s0.5,1,0.9,1.3s1,0.5,1.7,0.5c0.6,0,1.1-0.2,1.5-0.5s0.7-0.8,0.9-1.4s0.3-1.3,0.3-2.1
			c0-1.2-0.2-2.2-0.7-2.9S311.2,148.7,310.2,148.7z"/>
		<path class="st3" d="M319.7,158h-2v-15.2h2V158z"/>
		<path class="st3" d="M332.4,152.6c0,0.9-0.1,1.7-0.3,2.4s-0.6,1.3-1,1.8s-1,0.8-1.6,1.1s-1.3,0.4-2.1,0.4c-0.7,0-1.4-0.1-2-0.4
			s-1.1-0.6-1.6-1.1s-0.8-1.1-1-1.8s-0.4-1.5-0.4-2.4c0-1.2,0.2-2.2,0.6-3s1-1.5,1.7-1.9s1.6-0.6,2.7-0.6c1,0,1.9,0.2,2.6,0.7
			s1.3,1.1,1.7,1.9S332.4,151.4,332.4,152.6z M324.4,152.6c0,0.8,0.1,1.5,0.3,2.1s0.5,1.1,1,1.4s1,0.5,1.7,0.5
			c0.7,0,1.2-0.2,1.7-0.5s0.8-0.8,1-1.4s0.3-1.3,0.3-2.1c0-0.8-0.1-1.5-0.3-2.1s-0.5-1-1-1.3s-1-0.5-1.7-0.5c-1,0-1.8,0.3-2.3,1
			S324.4,151.4,324.4,152.6z"/>
		<path class="st3" d="M339.3,147.1c1.3,0,2.3,0.3,3,0.9s1,1.5,1,2.8v7.3h-1.4l-0.4-1.6h-0.1c-0.3,0.4-0.6,0.7-0.9,1
			s-0.7,0.5-1.1,0.6s-0.9,0.2-1.6,0.2c-0.7,0-1.2-0.1-1.7-0.4s-0.9-0.6-1.2-1.1s-0.4-1.1-0.4-1.8c0-1.1,0.4-1.9,1.3-2.5
			s2.1-0.9,3.8-0.9l1.9-0.1v-0.6c0-0.8-0.2-1.4-0.6-1.8s-0.9-0.5-1.6-0.5c-0.6,0-1.1,0.1-1.6,0.2s-1,0.3-1.5,0.6l-0.6-1.4
			c0.5-0.3,1.1-0.5,1.7-0.7S338.6,147.1,339.3,147.1z M341.3,152.8l-1.5,0.1c-1.2,0-2.1,0.3-2.6,0.6s-0.8,0.9-0.8,1.5
			c0,0.6,0.2,1,0.5,1.3s0.8,0.4,1.4,0.4c0.9,0,1.6-0.2,2.2-0.7s0.8-1.2,0.8-2.2V152.8z"/>
		<path class="st3" d="M350.2,158.2c-1.3,0-2.4-0.5-3.1-1.4s-1.2-2.3-1.2-4.1c0-1.8,0.4-3.2,1.2-4.2s1.9-1.4,3.2-1.4
			c0.6,0,1,0.1,1.5,0.2s0.8,0.3,1.1,0.6s0.6,0.5,0.8,0.8h0.1c0-0.2-0.1-0.5-0.1-0.8s0-0.7,0-1v-4.1h2V158H354l-0.3-1.5h-0.1
			c-0.2,0.3-0.4,0.6-0.7,0.9s-0.7,0.5-1.1,0.6S350.8,158.2,350.2,158.2z M350.7,156.6c1.1,0,1.8-0.3,2.3-0.9s0.7-1.5,0.7-2.7v-0.3
			c0-1.3-0.2-2.3-0.6-3s-1.2-1-2.3-1c-0.9,0-1.6,0.4-2.1,1.1s-0.7,1.7-0.7,3c0,1.2,0.2,2.2,0.7,2.9S349.8,156.6,350.7,156.6z"/>
		<path class="st3" d="M376.8,150.8c0,1.1-0.1,2.1-0.4,3s-0.7,1.7-1.2,2.3s-1.2,1.1-2.1,1.5s-1.8,0.5-2.9,0.5
			c-1.1,0-2.1-0.2-2.9-0.5s-1.5-0.9-2.1-1.5s-1-1.4-1.2-2.3c-0.3-0.9-0.4-1.9-0.4-3c0-1.5,0.2-2.7,0.7-3.8c0.5-1.1,1.2-2,2.2-2.6
			s2.2-0.9,3.7-0.9c1.4,0,2.7,0.3,3.6,0.9s1.7,1.5,2.2,2.6S376.8,149.4,376.8,150.8z M365.7,150.8c0,1.2,0.2,2.2,0.5,3
			s0.8,1.5,1.5,2s1.5,0.7,2.6,0.7c1,0,1.9-0.2,2.6-0.7s1.2-1.1,1.5-2s0.5-1.8,0.5-3c0-1.8-0.4-3.1-1.1-4.1s-1.8-1.5-3.4-1.5
			c-1,0-1.9,0.2-2.6,0.7s-1.2,1.1-1.5,1.9S365.7,149.7,365.7,150.8z"/>
		<path class="st3" d="M384.9,147c0.2,0,0.4,0,0.6,0s0.4,0.1,0.6,0.1l-0.2,1.8c-0.2,0-0.3-0.1-0.5-0.1s-0.4,0-0.6,0
			c-0.4,0-0.8,0.1-1.2,0.2s-0.7,0.4-1,0.7s-0.5,0.7-0.7,1.1s-0.2,0.9-0.2,1.5v5.7h-2v-10.8h1.6l0.2,1.9h0.1c0.2-0.4,0.5-0.7,0.8-1.1
			s0.7-0.6,1.1-0.8S384.4,147,384.9,147z"/>
		<path class="st3" d="M401.7,154.2c0,0.8-0.2,1.6-0.6,2.2s-1,1.1-1.8,1.4s-1.7,0.5-2.7,0.5c-0.5,0-1,0-1.5-0.1s-0.9-0.1-1.3-0.2
			s-0.8-0.2-1.1-0.4v-1.9c0.5,0.2,1.2,0.4,1.9,0.6s1.4,0.3,2.2,0.3c0.7,0,1.2-0.1,1.7-0.3s0.8-0.4,1-0.8s0.3-0.7,0.3-1.2
			s-0.1-0.8-0.3-1.1s-0.6-0.6-1-0.9s-1.1-0.5-1.9-0.8c-0.5-0.2-1-0.4-1.5-0.7s-0.8-0.5-1.1-0.9s-0.6-0.7-0.7-1.1s-0.3-0.9-0.3-1.5
			c0-0.8,0.2-1.5,0.6-2s0.9-1,1.6-1.3s1.5-0.4,2.4-0.4c0.8,0,1.5,0.1,2.1,0.2s1.3,0.4,1.9,0.6l-0.6,1.7c-0.6-0.2-1.1-0.4-1.7-0.6
			s-1.1-0.2-1.7-0.2c-0.6,0-1,0.1-1.4,0.2s-0.7,0.4-0.9,0.7s-0.3,0.7-0.3,1.1c0,0.5,0.1,0.8,0.3,1.2s0.5,0.6,1,0.8s1,0.5,1.8,0.8
			c0.8,0.3,1.5,0.6,2.1,1s1,0.8,1.3,1.3S401.7,153.4,401.7,154.2z"/>
		<path class="st3" d="M408.6,158.2c-1,0-1.9-0.2-2.6-0.6s-1.3-1-1.7-1.8s-0.6-1.9-0.6-3.1c0-1.3,0.2-2.4,0.7-3.2s1-1.4,1.8-1.8
			s1.7-0.6,2.7-0.6c0.6,0,1.1,0.1,1.6,0.2s0.9,0.3,1.3,0.4l-0.6,1.6c-0.4-0.1-0.8-0.3-1.2-0.4s-0.8-0.2-1.2-0.2
			c-0.7,0-1.3,0.2-1.7,0.5s-0.8,0.7-1,1.3s-0.3,1.3-0.3,2.2c0,0.8,0.1,1.5,0.3,2.1s0.6,1,1,1.3s1,0.4,1.6,0.4c0.6,0,1.1-0.1,1.6-0.2
			s0.9-0.3,1.3-0.5v1.7c-0.4,0.2-0.8,0.4-1.2,0.5S409.2,158.2,408.6,158.2z"/>
		<path class="st3" d="M418.2,147.1c1.3,0,2.3,0.3,3,0.9s1,1.5,1,2.8v7.3h-1.4l-0.4-1.6h-0.1c-0.3,0.4-0.6,0.7-0.9,1
			s-0.7,0.5-1.1,0.6s-0.9,0.2-1.6,0.2c-0.7,0-1.2-0.1-1.7-0.4s-0.9-0.6-1.2-1.1s-0.4-1.1-0.4-1.8c0-1.1,0.4-1.9,1.3-2.5
			s2.1-0.9,3.8-0.9l1.9-0.1v-0.6c0-0.8-0.2-1.4-0.6-1.8s-0.9-0.5-1.6-0.5c-0.6,0-1.1,0.1-1.6,0.2s-1,0.3-1.5,0.6l-0.6-1.4
			c0.5-0.3,1.1-0.5,1.7-0.7S417.4,147.1,418.2,147.1z M420.2,152.8l-1.5,0.1c-1.2,0-2.1,0.3-2.6,0.6s-0.8,0.9-0.8,1.5
			c0,0.6,0.2,1,0.5,1.3s0.8,0.4,1.4,0.4c0.9,0,1.6-0.2,2.2-0.7s0.8-1.2,0.8-2.2V152.8z"/>
		<path class="st3" d="M430.7,147c1.2,0,2.2,0.3,2.9,0.9s1,1.6,1,3v7h-1.9v-6.7c0-0.9-0.2-1.5-0.6-1.9s-1-0.6-1.7-0.6
			c-1.1,0-1.9,0.3-2.3,1s-0.7,1.6-0.7,2.9v5.5h-2v-10.8h1.6l0.3,1.5h0.1c0.2-0.4,0.5-0.7,0.9-0.9s0.7-0.4,1.2-0.6
			S430.3,147,430.7,147z"/>
		<path class="st3" d="M446.8,158.2c-1.3,0-2.4-0.5-3.1-1.4s-1.2-2.3-1.2-4.1c0-1.8,0.4-3.2,1.2-4.2s1.9-1.4,3.2-1.4
			c0.6,0,1,0.1,1.5,0.2s0.8,0.3,1.1,0.6s0.6,0.5,0.8,0.8h0.1c0-0.2-0.1-0.5-0.1-0.8s0-0.7,0-1v-4.1h2V158h-1.6l-0.3-1.5h-0.1
			c-0.2,0.3-0.4,0.6-0.7,0.9s-0.7,0.5-1.1,0.6S447.4,158.2,446.8,158.2z M447.3,156.6c1.1,0,1.8-0.3,2.3-0.9s0.7-1.5,0.7-2.7v-0.3
			c0-1.3-0.2-2.3-0.6-3s-1.2-1-2.3-1c-0.9,0-1.6,0.4-2.1,1.1s-0.7,1.7-0.7,3c0,1.2,0.2,2.2,0.7,2.9S446.3,156.6,447.3,156.6z"/>
		<path class="st3" d="M464.8,152.6c0,0.9-0.1,1.7-0.3,2.4s-0.6,1.3-1,1.8s-1,0.8-1.6,1.1s-1.3,0.4-2.1,0.4c-0.7,0-1.4-0.1-2-0.4
			s-1.1-0.6-1.6-1.1s-0.8-1.1-1-1.8s-0.4-1.5-0.4-2.4c0-1.2,0.2-2.2,0.6-3s1-1.5,1.7-1.9s1.6-0.6,2.7-0.6c1,0,1.9,0.2,2.6,0.7
			s1.3,1.1,1.7,1.9S464.8,151.4,464.8,152.6z M456.8,152.6c0,0.8,0.1,1.5,0.3,2.1s0.5,1.1,1,1.4s1,0.5,1.7,0.5
			c0.7,0,1.2-0.2,1.7-0.5s0.8-0.8,1-1.4s0.3-1.3,0.3-2.1c0-0.8-0.1-1.5-0.3-2.1s-0.5-1-1-1.3s-1-0.5-1.7-0.5c-1,0-1.8,0.3-2.3,1
			S456.8,151.4,456.8,152.6z"/>
		<path class="st3" d="M471.9,158.2c-1,0-1.9-0.2-2.6-0.6s-1.3-1-1.7-1.8s-0.6-1.9-0.6-3.1c0-1.3,0.2-2.4,0.7-3.2s1-1.4,1.8-1.8
			s1.7-0.6,2.7-0.6c0.6,0,1.1,0.1,1.6,0.2s0.9,0.3,1.3,0.4l-0.6,1.6c-0.4-0.1-0.8-0.3-1.2-0.4s-0.8-0.2-1.2-0.2
			c-0.7,0-1.3,0.2-1.7,0.5s-0.8,0.7-1,1.3s-0.3,1.3-0.3,2.2c0,0.8,0.1,1.5,0.3,2.1s0.6,1,1,1.3s1,0.4,1.6,0.4c0.6,0,1.1-0.1,1.6-0.2
			s0.9-0.3,1.3-0.5v1.7c-0.4,0.2-0.8,0.4-1.2,0.5S472.5,158.2,471.9,158.2z"/>
		<path class="st3" d="M486.4,147.2V158h-1.6l-0.3-1.5h-0.1c-0.2,0.4-0.5,0.7-0.9,0.9s-0.7,0.4-1.2,0.6s-0.9,0.2-1.4,0.2
			c-0.8,0-1.5-0.1-2.1-0.4s-1-0.7-1.3-1.3s-0.4-1.3-0.4-2.2v-7h2v6.8c0,0.9,0.2,1.5,0.6,1.9s0.9,0.6,1.7,0.6c0.7,0,1.3-0.1,1.8-0.4
			s0.8-0.7,0.9-1.3s0.3-1.3,0.3-2.1v-5.5H486.4z"/>
		<path class="st3" d="M501.7,147c1.2,0,2.1,0.3,2.7,0.9s0.9,1.6,0.9,3v7h-1.9v-6.8c0-0.8-0.2-1.5-0.5-1.9s-0.9-0.6-1.6-0.6
			c-1,0-1.7,0.3-2.1,0.9s-0.6,1.5-0.6,2.6v5.9h-2v-6.8c0-0.6-0.1-1-0.2-1.4s-0.4-0.7-0.7-0.8s-0.7-0.3-1.2-0.3
			c-0.7,0-1.2,0.1-1.6,0.4s-0.7,0.7-0.9,1.3s-0.3,1.3-0.3,2.1v5.5h-2v-10.8h1.6l0.3,1.5h0.1c0.2-0.4,0.5-0.7,0.8-0.9
			s0.7-0.4,1.1-0.6s0.8-0.2,1.3-0.2c0.8,0,1.5,0.1,2,0.4s1,0.7,1.2,1.3h0.1c0.3-0.6,0.8-1.1,1.4-1.3S501,147,501.7,147z"/>
		<path class="st3" d="M512.8,147c0.9,0,1.7,0.2,2.4,0.6s1.2,1,1.5,1.7s0.5,1.6,0.5,2.6v1.1H510c0,1.2,0.3,2,0.9,2.7
			s1.4,0.9,2.4,0.9c0.7,0,1.3-0.1,1.8-0.2s1.1-0.3,1.7-0.6v1.7c-0.5,0.2-1.1,0.4-1.6,0.5s-1.2,0.2-1.9,0.2c-1,0-2-0.2-2.7-0.6
			s-1.4-1-1.8-1.9s-0.7-1.8-0.7-3c0-1.2,0.2-2.2,0.6-3s1-1.5,1.7-1.9S511.8,147,512.8,147z M512.8,148.6c-0.8,0-1.4,0.3-1.9,0.8
			s-0.8,1.3-0.8,2.2h5.3c0-0.6-0.1-1.1-0.3-1.6s-0.5-0.8-0.8-1.1S513.4,148.6,512.8,148.6z"/>
		<path class="st3" d="M525.3,147c1.2,0,2.2,0.3,2.9,0.9s1,1.6,1,3v7h-1.9v-6.7c0-0.9-0.2-1.5-0.6-1.9s-1-0.6-1.7-0.6
			c-1.1,0-1.9,0.3-2.3,1s-0.7,1.6-0.7,2.9v5.5h-2v-10.8h1.6l0.3,1.5h0.1c0.2-0.4,0.5-0.7,0.9-0.9s0.7-0.4,1.2-0.6
			S524.8,147,525.3,147z"/>
		<path class="st3" d="M536.2,156.6c0.3,0,0.6,0,0.8-0.1s0.5-0.1,0.7-0.2v1.5c-0.2,0.1-0.5,0.2-0.9,0.2s-0.7,0.1-1.1,0.1
			c-0.6,0-1.1-0.1-1.6-0.3s-0.9-0.5-1.1-1s-0.4-1.2-0.4-2v-6.1h-1.5v-0.9l1.6-0.7l0.7-2.3h1.2v2.4h3.1v1.5h-3.1v6
			c0,0.6,0.1,1.1,0.4,1.4S535.7,156.6,536.2,156.6z"/>
		<path class="st3" d="M547.1,155c0,0.7-0.2,1.3-0.5,1.8s-0.8,0.8-1.5,1.1s-1.4,0.4-2.3,0.4c-0.8,0-1.4-0.1-2-0.2s-1-0.3-1.5-0.5
			v-1.7c0.5,0.2,1,0.4,1.7,0.6s1.2,0.3,1.8,0.3c0.8,0,1.4-0.1,1.8-0.4s0.6-0.6,0.6-1.1c0-0.3-0.1-0.5-0.2-0.7s-0.4-0.4-0.8-0.6
			s-0.9-0.4-1.6-0.7c-0.7-0.3-1.3-0.5-1.8-0.8s-0.9-0.6-1.1-1s-0.4-0.9-0.4-1.5c0-0.9,0.4-1.6,1.1-2.1s1.7-0.7,3-0.7
			c0.7,0,1.3,0.1,1.8,0.2s1.1,0.3,1.7,0.5l-0.6,1.5c-0.5-0.2-1-0.4-1.4-0.5s-1-0.2-1.5-0.2c-0.7,0-1.2,0.1-1.5,0.3s-0.5,0.5-0.5,0.9
			c0,0.3,0.1,0.5,0.2,0.7s0.4,0.4,0.8,0.6s0.9,0.4,1.6,0.7c0.7,0.2,1.2,0.5,1.7,0.8s0.8,0.6,1.1,1S547.1,154.4,547.1,155z"/>
		<path class="st3" d="M558.9,147.1c1.3,0,2.3,0.3,3,0.9s1,1.5,1,2.8v7.3h-1.4l-0.4-1.6H561c-0.3,0.4-0.6,0.7-0.9,1
			s-0.7,0.5-1.1,0.6s-0.9,0.2-1.6,0.2c-0.7,0-1.2-0.1-1.7-0.4s-0.9-0.6-1.2-1.1s-0.4-1.1-0.4-1.8c0-1.1,0.4-1.9,1.3-2.5
			s2.1-0.9,3.8-0.9l1.9-0.1v-0.6c0-0.8-0.2-1.4-0.6-1.8s-0.9-0.5-1.6-0.5c-0.6,0-1.1,0.1-1.6,0.2s-1,0.3-1.5,0.6l-0.6-1.4
			c0.5-0.3,1.1-0.5,1.7-0.7S558.2,147.1,558.9,147.1z M560.9,152.8l-1.5,0.1c-1.2,0-2.1,0.3-2.6,0.6s-0.8,0.9-0.8,1.5
			c0,0.6,0.2,1,0.5,1.3s0.8,0.4,1.4,0.4c0.9,0,1.6-0.2,2.2-0.7s0.8-1.2,0.8-2.2V152.8z"/>
		<path class="st3" d="M571.5,147c1.2,0,2.2,0.3,2.9,0.9s1,1.6,1,3v7h-1.9v-6.7c0-0.9-0.2-1.5-0.6-1.9s-1-0.6-1.7-0.6
			c-1.1,0-1.9,0.3-2.3,1s-0.7,1.6-0.7,2.9v5.5h-2v-10.8h1.6l0.3,1.5h0.1c0.2-0.4,0.5-0.7,0.9-0.9s0.7-0.4,1.2-0.6S571,147,571.5,147
			z"/>
		<path class="st3" d="M582.4,158.2c-1.3,0-2.4-0.5-3.1-1.4s-1.2-2.3-1.2-4.1c0-1.8,0.4-3.2,1.2-4.2s1.9-1.4,3.2-1.4
			c0.6,0,1,0.1,1.5,0.2s0.8,0.3,1.1,0.6s0.6,0.5,0.8,0.8h0.1c0-0.2-0.1-0.5-0.1-0.8s0-0.7,0-1v-4.1h2V158h-1.6l-0.3-1.5h-0.1
			c-0.2,0.3-0.4,0.6-0.7,0.9s-0.7,0.5-1.1,0.6S582.9,158.2,582.4,158.2z M582.8,156.6c1.1,0,1.8-0.3,2.3-0.9s0.7-1.5,0.7-2.7v-0.3
			c0-1.3-0.2-2.3-0.6-3s-1.2-1-2.3-1c-0.9,0-1.6,0.4-2.1,1.1s-0.7,1.7-0.7,3c0,1.2,0.2,2.2,0.7,2.9S581.9,156.6,582.8,156.6z"/>
	</g>
	<g class="st2">
		<path class="st3" d="M296,174c1.3,0,2.4,0.5,3.1,1.4s1.2,2.3,1.2,4.2c0,1.2-0.2,2.3-0.5,3.1s-0.9,1.5-1.5,1.9s-1.4,0.6-2.3,0.6
			c-0.6,0-1-0.1-1.5-0.2s-0.8-0.3-1.1-0.6s-0.5-0.5-0.7-0.8h-0.1c0,0.3,0.1,0.5,0.1,0.9s0,0.6,0,0.9v4.4h-2v-15.5h1.6l0.3,1.5h0.1
			c0.2-0.3,0.5-0.6,0.7-0.9s0.7-0.5,1.1-0.6S295.4,174,296,174z M295.5,175.7c-0.7,0-1.2,0.1-1.7,0.4s-0.7,0.7-0.9,1.2
			s-0.3,1.2-0.3,2v0.3c0,0.9,0.1,1.6,0.3,2.2s0.5,1,0.9,1.3s1,0.5,1.7,0.5c0.6,0,1.1-0.2,1.5-0.5s0.7-0.8,0.9-1.4s0.3-1.3,0.3-2.1
			c0-1.2-0.2-2.2-0.7-2.9S296.5,175.7,295.5,175.7z"/>
		<path class="st3" d="M308.2,174c0.2,0,0.4,0,0.6,0s0.4,0.1,0.6,0.1l-0.2,1.8c-0.2,0-0.3-0.1-0.5-0.1s-0.4,0-0.6,0
			c-0.4,0-0.8,0.1-1.2,0.2s-0.7,0.4-1,0.7s-0.5,0.7-0.7,1.1s-0.2,0.9-0.2,1.5v5.7h-2v-10.8h1.6l0.2,1.9h0.1c0.2-0.4,0.5-0.7,0.8-1.1
			s0.7-0.6,1.1-0.8S307.7,174,308.2,174z"/>
		<path class="st3" d="M320.8,179.6c0,0.9-0.1,1.7-0.3,2.4s-0.6,1.3-1,1.8s-1,0.8-1.6,1.1s-1.3,0.4-2.1,0.4c-0.7,0-1.4-0.1-2-0.4
			s-1.1-0.6-1.6-1.1s-0.8-1.1-1-1.8s-0.4-1.5-0.4-2.4c0-1.2,0.2-2.2,0.6-3s1-1.5,1.7-1.9s1.6-0.6,2.7-0.6c1,0,1.9,0.2,2.6,0.7
			s1.3,1.1,1.7,1.9S320.8,178.4,320.8,179.6z M312.8,179.6c0,0.8,0.1,1.5,0.3,2.1s0.5,1.1,1,1.4s1,0.5,1.7,0.5
			c0.7,0,1.2-0.2,1.7-0.5s0.8-0.8,1-1.4s0.3-1.3,0.3-2.1c0-0.8-0.1-1.5-0.3-2.1s-0.5-1-1-1.3s-1-0.5-1.7-0.5c-1,0-1.8,0.3-2.3,1
			S312.8,178.4,312.8,179.6z"/>
		<path class="st3" d="M327.9,185.2c-1,0-1.9-0.2-2.6-0.6s-1.3-1-1.7-1.8s-0.6-1.9-0.6-3.1c0-1.3,0.2-2.4,0.7-3.2s1-1.4,1.8-1.8
			s1.7-0.6,2.7-0.6c0.6,0,1.1,0.1,1.6,0.2s0.9,0.3,1.3,0.4l-0.6,1.6c-0.4-0.1-0.8-0.3-1.2-0.4s-0.8-0.2-1.2-0.2
			c-0.7,0-1.3,0.2-1.7,0.5s-0.8,0.7-1,1.3s-0.3,1.3-0.3,2.2c0,0.8,0.1,1.5,0.3,2.1s0.6,1,1,1.3s1,0.4,1.6,0.4c0.6,0,1.1-0.1,1.6-0.2
			s0.9-0.3,1.3-0.5v1.7c-0.4,0.2-0.8,0.4-1.2,0.5S328.5,185.2,327.9,185.2z"/>
		<path class="st3" d="M337.5,174c0.9,0,1.7,0.2,2.4,0.6s1.2,1,1.5,1.7s0.5,1.6,0.5,2.6v1.1h-7.3c0,1.2,0.3,2,0.9,2.7
			s1.4,0.9,2.4,0.9c0.7,0,1.3-0.1,1.8-0.2s1.1-0.3,1.7-0.6v1.7c-0.5,0.2-1.1,0.4-1.6,0.5s-1.2,0.2-1.9,0.2c-1,0-2-0.2-2.7-0.6
			s-1.4-1-1.8-1.9s-0.7-1.8-0.7-3c0-1.2,0.2-2.2,0.6-3s1-1.5,1.7-1.9S336.5,174,337.5,174z M337.5,175.6c-0.8,0-1.4,0.3-1.9,0.8
			s-0.8,1.3-0.8,2.2h5.3c0-0.6-0.1-1.1-0.3-1.6s-0.5-0.8-0.8-1.1S338.1,175.6,337.5,175.6z"/>
		<path class="st3" d="M351.8,182c0,0.7-0.2,1.3-0.5,1.8s-0.8,0.8-1.5,1.1s-1.4,0.4-2.3,0.4c-0.8,0-1.4-0.1-2-0.2s-1-0.3-1.5-0.5
			v-1.7c0.5,0.2,1,0.4,1.7,0.6s1.2,0.3,1.8,0.3c0.8,0,1.4-0.1,1.8-0.4s0.6-0.6,0.6-1.1c0-0.3-0.1-0.5-0.2-0.7s-0.4-0.4-0.8-0.6
			s-0.9-0.4-1.6-0.7c-0.7-0.3-1.3-0.5-1.8-0.8s-0.9-0.6-1.1-1s-0.4-0.9-0.4-1.5c0-0.9,0.4-1.6,1.1-2.1s1.7-0.7,3-0.7
			c0.7,0,1.3,0.1,1.8,0.2s1.1,0.3,1.7,0.5l-0.6,1.5c-0.5-0.2-1-0.4-1.4-0.5s-1-0.2-1.5-0.2c-0.7,0-1.2,0.1-1.5,0.3s-0.5,0.5-0.5,0.9
			c0,0.3,0.1,0.5,0.2,0.7s0.4,0.4,0.8,0.6s0.9,0.4,1.6,0.7c0.7,0.2,1.2,0.5,1.7,0.8s0.8,0.6,1.1,1S351.8,181.4,351.8,182z"/>
		<path class="st3" d="M361.4,182c0,0.7-0.2,1.3-0.5,1.8s-0.8,0.8-1.5,1.1s-1.4,0.4-2.3,0.4c-0.8,0-1.4-0.1-2-0.2s-1-0.3-1.5-0.5
			v-1.7c0.5,0.2,1,0.4,1.7,0.6s1.2,0.3,1.8,0.3c0.8,0,1.4-0.1,1.8-0.4s0.6-0.6,0.6-1.1c0-0.3-0.1-0.5-0.2-0.7s-0.4-0.4-0.8-0.6
			s-0.9-0.4-1.6-0.7c-0.7-0.3-1.3-0.5-1.8-0.8s-0.9-0.6-1.1-1s-0.4-0.9-0.4-1.5c0-0.9,0.4-1.6,1.1-2.1s1.7-0.7,3-0.7
			c0.7,0,1.3,0.1,1.8,0.2s1.1,0.3,1.7,0.5l-0.6,1.5c-0.5-0.2-1-0.4-1.4-0.5s-1-0.2-1.5-0.2c-0.7,0-1.2,0.1-1.5,0.3s-0.5,0.5-0.5,0.9
			c0,0.3,0.1,0.5,0.2,0.7s0.4,0.4,0.8,0.6s0.9,0.4,1.6,0.7c0.7,0.2,1.2,0.5,1.7,0.8s0.8,0.6,1.1,1S361.4,181.4,361.4,182z"/>
		<path class="st3" d="M372.9,183.6c0.3,0,0.6,0,0.8-0.1s0.5-0.1,0.7-0.2v1.5c-0.2,0.1-0.5,0.2-0.9,0.2s-0.7,0.1-1.1,0.1
			c-0.6,0-1.1-0.1-1.6-0.3s-0.9-0.5-1.1-1s-0.4-1.2-0.4-2v-6.1h-1.5v-0.9l1.6-0.7l0.7-2.3h1.2v2.4h3.1v1.5h-3.1v6
			c0,0.6,0.1,1.1,0.4,1.4S372.4,183.6,372.9,183.6z"/>
		<path class="st3" d="M378.6,169.8v4.2c0,0.3,0,0.7,0,1s0,0.6-0.1,0.8h0.1c0.2-0.4,0.5-0.7,0.8-0.9s0.7-0.4,1.1-0.6
			s0.9-0.2,1.4-0.2c0.8,0,1.5,0.1,2.1,0.4s1,0.7,1.3,1.3s0.4,1.3,0.4,2.2v7h-1.9v-6.7c0-0.9-0.2-1.5-0.6-1.9s-1-0.6-1.7-0.6
			c-0.7,0-1.3,0.1-1.8,0.4s-0.8,0.7-0.9,1.3s-0.3,1.3-0.3,2.1v5.5h-2v-15.2H378.6z"/>
		<path class="st3" d="M393.4,174c0.9,0,1.7,0.2,2.4,0.6s1.2,1,1.5,1.7s0.5,1.6,0.5,2.6v1.1h-7.3c0,1.2,0.3,2,0.9,2.7
			s1.4,0.9,2.4,0.9c0.7,0,1.3-0.1,1.8-0.2s1.1-0.3,1.7-0.6v1.7c-0.5,0.2-1.1,0.4-1.6,0.5s-1.2,0.2-1.9,0.2c-1,0-2-0.2-2.7-0.6
			s-1.4-1-1.8-1.9s-0.7-1.8-0.7-3c0-1.2,0.2-2.2,0.6-3s1-1.5,1.7-1.9S392.4,174,393.4,174z M393.4,175.6c-0.8,0-1.4,0.3-1.9,0.8
			s-0.8,1.3-0.8,2.2h5.3c0-0.6-0.1-1.1-0.3-1.6s-0.5-0.8-0.8-1.1S393.9,175.6,393.4,175.6z"/>
		<path class="st3" d="M412.4,174c1.2,0,2.1,0.3,2.7,0.9s0.9,1.6,0.9,3v7h-1.9v-6.8c0-0.8-0.2-1.5-0.5-1.9s-0.9-0.6-1.6-0.6
			c-1,0-1.7,0.3-2.1,0.9s-0.6,1.5-0.6,2.6v5.9h-2v-6.8c0-0.6-0.1-1-0.2-1.4s-0.4-0.7-0.7-0.8s-0.7-0.3-1.2-0.3
			c-0.7,0-1.2,0.1-1.6,0.4s-0.7,0.7-0.9,1.3s-0.3,1.3-0.3,2.1v5.5h-2v-10.8h1.6l0.3,1.5h0.1c0.2-0.4,0.5-0.7,0.8-0.9
			s0.7-0.4,1.1-0.6s0.8-0.2,1.3-0.2c0.8,0,1.5,0.1,2,0.4s1,0.7,1.2,1.3h0.1c0.3-0.6,0.8-1.1,1.4-1.3S411.7,174,412.4,174z"/>
		<path class="st3" d="M433.9,179.6c0,0.9-0.1,1.7-0.3,2.4s-0.6,1.3-1,1.8s-1,0.8-1.6,1.1s-1.3,0.4-2.1,0.4c-0.7,0-1.4-0.1-2-0.4
			s-1.1-0.6-1.6-1.1s-0.8-1.1-1-1.8s-0.4-1.5-0.4-2.4c0-1.2,0.2-2.2,0.6-3s1-1.5,1.7-1.9s1.6-0.6,2.7-0.6c1,0,1.9,0.2,2.6,0.7
			s1.3,1.1,1.7,1.9S433.9,178.4,433.9,179.6z M425.9,179.6c0,0.8,0.1,1.5,0.3,2.1s0.5,1.1,1,1.4s1,0.5,1.7,0.5
			c0.7,0,1.2-0.2,1.7-0.5s0.8-0.8,1-1.4s0.3-1.3,0.3-2.1c0-0.8-0.1-1.5-0.3-2.1s-0.5-1-1-1.3s-1-0.5-1.7-0.5c-1,0-1.8,0.3-2.3,1
			S425.9,178.4,425.9,179.6z"/>
		<path class="st3" d="M442,174c1.2,0,2.2,0.3,2.9,0.9s1,1.6,1,3v7h-1.9v-6.7c0-0.9-0.2-1.5-0.6-1.9s-1-0.6-1.7-0.6
			c-1.1,0-1.9,0.3-2.3,1s-0.7,1.6-0.7,2.9v5.5h-2v-10.8h1.6l0.3,1.5h0.1c0.2-0.4,0.5-0.7,0.9-0.9s0.7-0.4,1.2-0.6S441.5,174,442,174
			z"/>
		<path class="st3" d="M453.3,174c0.9,0,1.7,0.2,2.4,0.6s1.2,1,1.5,1.7s0.5,1.6,0.5,2.6v1.1h-7.3c0,1.2,0.3,2,0.9,2.7
			s1.4,0.9,2.4,0.9c0.7,0,1.3-0.1,1.8-0.2s1.1-0.3,1.7-0.6v1.7c-0.5,0.2-1.1,0.4-1.6,0.5s-1.2,0.2-1.9,0.2c-1,0-2-0.2-2.7-0.6
			s-1.4-1-1.8-1.9s-0.7-1.8-0.7-3c0-1.2,0.2-2.2,0.6-3s1-1.5,1.7-1.9S452.4,174,453.3,174z M453.3,175.6c-0.8,0-1.4,0.3-1.9,0.8
			s-0.8,1.3-0.8,2.2h5.3c0-0.6-0.1-1.1-0.3-1.6s-0.5-0.8-0.8-1.1S453.9,175.6,453.3,175.6z"/>
		<path class="st3" d="M467.7,169.8v3.7c0,0.4,0,0.8,0,1.3s0,0.7-0.1,0.9h0.1c0.3-0.5,0.7-0.9,1.2-1.2s1.2-0.5,2.1-0.5
			c1.3,0,2.4,0.5,3.1,1.4s1.2,2.3,1.2,4.2c0,1.2-0.2,2.2-0.5,3.1s-0.9,1.5-1.5,1.9s-1.4,0.6-2.3,0.6c-0.8,0-1.5-0.2-2-0.5
			s-0.9-0.7-1.2-1.1h-0.1l-0.4,1.4h-1.5v-15.2H467.7z M470.5,175.7c-0.7,0-1.3,0.1-1.7,0.4s-0.7,0.7-0.9,1.3s-0.3,1.3-0.3,2.1v0.1
			c0,1.3,0.2,2.3,0.6,2.9s1.2,1,2.3,1c0.9,0,1.6-0.3,2-1s0.7-1.7,0.7-3c0-1.3-0.2-2.3-0.7-2.9S471.5,175.7,470.5,175.7z"/>
		<path class="st3" d="M476.4,174.2h2.1l2.3,6.2c0.1,0.3,0.2,0.6,0.3,0.9s0.2,0.6,0.3,0.9s0.1,0.6,0.2,0.8h0.1
			c0.1-0.3,0.2-0.7,0.3-1.2s0.3-1,0.5-1.4l2.2-6.2h2.1l-4.6,12.3c-0.3,0.7-0.6,1.3-0.9,1.8s-0.8,0.9-1.3,1.1s-1.1,0.4-1.8,0.4
			c-0.3,0-0.6,0-0.8-0.1s-0.4-0.1-0.6-0.1v-1.6c0.1,0,0.3,0.1,0.5,0.1s0.4,0,0.6,0c0.4,0,0.8-0.1,1.1-0.2s0.5-0.4,0.8-0.7
			s0.4-0.6,0.5-1l0.5-1.3L476.4,174.2z"/>
		<path class="st3" d="M503,179.6c0,0.9-0.1,1.7-0.3,2.4s-0.6,1.3-1,1.8s-1,0.8-1.6,1.1s-1.3,0.4-2.1,0.4c-0.7,0-1.4-0.1-2-0.4
			s-1.1-0.6-1.6-1.1s-0.8-1.1-1-1.8s-0.4-1.5-0.4-2.4c0-1.2,0.2-2.2,0.6-3s1-1.5,1.7-1.9s1.6-0.6,2.7-0.6c1,0,1.9,0.2,2.6,0.7
			s1.3,1.1,1.7,1.9S503,178.4,503,179.6z M495,179.6c0,0.8,0.1,1.5,0.3,2.1s0.5,1.1,1,1.4s1,0.5,1.7,0.5c0.7,0,1.2-0.2,1.7-0.5
			s0.8-0.8,1-1.4s0.3-1.3,0.3-2.1c0-0.8-0.1-1.5-0.3-2.1s-0.5-1-1-1.3s-1-0.5-1.7-0.5c-1,0-1.8,0.3-2.3,1S495,178.4,495,179.6z"/>
		<path class="st3" d="M511.1,174c1.2,0,2.2,0.3,2.9,0.9s1,1.6,1,3v7H513v-6.7c0-0.9-0.2-1.5-0.6-1.9s-1-0.6-1.7-0.6
			c-1.1,0-1.9,0.3-2.3,1s-0.7,1.6-0.7,2.9v5.5h-2v-10.8h1.6l0.3,1.5h0.1c0.2-0.4,0.5-0.7,0.9-0.9s0.7-0.4,1.2-0.6
			S510.6,174,511.1,174z"/>
		<path class="st3" d="M522.4,174c0.9,0,1.7,0.2,2.4,0.6s1.2,1,1.5,1.7s0.5,1.6,0.5,2.6v1.1h-7.3c0,1.2,0.3,2,0.9,2.7
			s1.4,0.9,2.4,0.9c0.7,0,1.3-0.1,1.8-0.2s1.1-0.3,1.7-0.6v1.7c-0.5,0.2-1.1,0.4-1.6,0.5s-1.2,0.2-1.9,0.2c-1,0-2-0.2-2.7-0.6
			s-1.4-1-1.8-1.9s-0.7-1.8-0.7-3c0-1.2,0.2-2.2,0.6-3s1-1.5,1.7-1.9S521.5,174,522.4,174z M522.4,175.6c-0.8,0-1.4,0.3-1.9,0.8
			s-0.8,1.3-0.8,2.2h5.3c0-0.6-0.1-1.1-0.3-1.6s-0.5-0.8-0.8-1.1S523,175.6,522.4,175.6z"/>
	</g>
	<g id="Group_2451">
		<circle id="Ellipse_14" class="st4" cx="143.5" cy="142.5" r="105.5"/>
		<g id="Group_2442" transform="translate(63 -248.463)">
			<g id="document_1_" transform="translate(42.278 340.509)">
				<line id="Line_4" class="st5" x1="64.6" y1="71.8" x2="24.5" y2="71.8"/>
				<line id="Line_5" class="st5" x1="64.6" y1="49.5" x2="24.5" y2="49.5"/>
				<line id="Line_6" class="st5" x1="40.4" y1="27.2" x2="25.1" y2="27.2"/>
				<path id="Path_73" class="st5" d="M64.8,0l-41,0C9.1,0.1,0,9.8,0,24.5v49c0,14.8,9.2,24.6,24,24.6l41,0
					c14.7-0.1,23.8-9.8,23.8-24.5v-49C88.8,9.7,79.6,0,64.8,0z"/>
			</g>
			<path id="Path_74" class="st6" d="M30,389.6V418c0,0,0.7,28.6,29.2,32.6c25.2,0.8,23.9,0,31.9,0"/>
		</g>
	</g>
</g>
</svg>
