<svg id="Group_2497" data-name="Group 2497" xmlns="http://www.w3.org/2000/svg" width="28" height="28" viewBox="0 0 28 28">
  <g id="Group_2496" data-name="Group 2496" transform="translate(6.86 5.5)">
    <path id="Path_272" data-name="Path 272" d="M10,2.68V4.72h6.12V2.68A.68.68,0,0,0,15.44,2H10.68a.68.68,0,0,0-.68.68Z" transform="translate(-5.92 -2)" fill="red"/>
    <path id="Path_273" data-name="Path 273" d="M4,4.68v.68H18.28V4.68A.68.68,0,0,0,17.6,4H4.68A.68.68,0,0,0,4,4.68ZM5.36,6.72l1.232,11.7A1.36,1.36,0,0,0,7.945,19.64h6.391a1.36,1.36,0,0,0,1.353-1.218L16.92,6.72Z" transform="translate(-4 -2.64)" fill="red"/>
  </g>
  <rect id="Rectangle_1474" data-name="Rectangle 1474" width="28" height="28" rx="9" fill="#7c0202" opacity="0.14"/>
</svg>
